<?xml version="1.0" encoding="iso-8859-1"?>
<!-- Generator: Adobe Illustrator 19.0.0, SVG Export Plug-In . SVG Version: 6.00 Build 0)  -->
<svg version="1.1" id="Capa_1" xmlns="http://www.w3.org/2000/svg" xmlns:xlink="http://www.w3.org/1999/xlink" x="0px" y="0px"
	 viewBox="0 0 512.07 512.07" style="enable-background:new 0 0 512.07 512.07;" xml:space="preserve">
<g transform="translate(0 -1)">
	<path style="fill:#7FACFA;" d="M486.138,269.048c0,16.495-13.372,29.867-29.867,29.867c-16.495,0,4.859-13.372,4.859-29.867
		s-21.354-29.867-4.859-29.867C472.766,239.181,486.138,252.553,486.138,269.048L486.138,269.048z"/>
	<ellipse style="fill:#A4C2F7;" cx="443.766" cy="269.051" rx="17.365" ry="29.867"/>
	<path style="fill:#7FACFA;" d="M406.833,507.555c9.306,0,18.033-4.516,23.407-12.112c5.375-7.597,6.729-17.329,3.632-26.104
		l-11.671-33.069c-5.302,6.117-11.061,11.823-17.228,17.068c-1.175,1.002-2.367,1.989-3.576,2.962L406.833,507.555z"/>
	<path style="fill:#A4C2F7;" d="M402.402,433.251c-14.503,23.282-35.662,41.674-60.738,52.792l1.851,8.409
		c0.563,5.266,4.686,9.447,9.943,10.084h37.669c14.515,0,24.668-19.561,19.837-38.217L402.402,433.251z"/>
	<path style="fill:#FFFFFF;" d="M102.742,450.263c-6.431-4.897-12.487-10.267-18.119-16.065L70.854,468.62
		c-6.881,17.202,13.348,35.917,31.877,35.917L102.742,450.263z"/>
	<g>
		<path style="fill:#A4C2F7;" d="M105.79,434.198L95.603,468.62c-5.091,17.202,4.283,35.917,17.993,35.917h42.558
			c3.139-0.317,5.697-2.658,6.29-5.756l4.582-15.483C142.574,472.727,121.422,455.767,105.79,434.198L105.79,434.198z"/>
		<path style="fill:#A4C2F7;" d="M316.064,171.737c29.333,10.133,50.537-35.519,50.537-64c0-54.198-43.936-98.133-98.133-98.133
			c-54.197,0,64.663,39.669,64.663,93.867L316.064,171.737z"/>
	</g>
	
		<linearGradient id="SVGID_1_" gradientUnits="userSpaceOnUse" x1="-48.2626" y1="653.0905" x2="-47.5013" y2="652.3508" gradientTransform="matrix(170.685 0 0 -175.6709 8429.0674 114771.6406)">
		<stop  offset="0" style="stop-color:#D3DFF2"/>
		<stop  offset="0.1717" style="stop-color:#D3DFF2"/>
		<stop  offset="0.2" style="stop-color:#D3DFF2"/>
		<stop  offset="0.2002" style="stop-color:#DAE2F2"/>
		<stop  offset="0.2007" style="stop-color:#EBEAF2"/>
		<stop  offset="0.2014" style="stop-color:#F6EFF2"/>
		<stop  offset="0.2023" style="stop-color:#FDF2F2"/>
		<stop  offset="0.205" style="stop-color:#FFF3F2"/>
		<stop  offset="0.2522" style="stop-color:#FFF3F2"/>
		<stop  offset="0.26" style="stop-color:#FFF3F2"/>
		<stop  offset="0.26" style="stop-color:#D3DFF2"/>
		<stop  offset="0.3974" style="stop-color:#D3DFF2"/>
		<stop  offset="0.42" style="stop-color:#D3DFF2"/>
		<stop  offset="0.4202" style="stop-color:#DAE2F2"/>
		<stop  offset="0.4207" style="stop-color:#EBEAF2"/>
		<stop  offset="0.4214" style="stop-color:#F6EFF2"/>
		<stop  offset="0.4223" style="stop-color:#FDF2F2"/>
		<stop  offset="0.425" style="stop-color:#FFF3F2"/>
		<stop  offset="0.4894" style="stop-color:#FFF3F2"/>
		<stop  offset="0.5" style="stop-color:#FFF3F2"/>
		<stop  offset="0.5" style="stop-color:#F8F0F2"/>
		<stop  offset="0.5001" style="stop-color:#E7E8F2"/>
		<stop  offset="0.5003" style="stop-color:#DCE3F2"/>
		<stop  offset="0.5005" style="stop-color:#D5E0F2"/>
		<stop  offset="0.501" style="stop-color:#D3DFF2"/>
		<stop  offset="0.7062" style="stop-color:#D3DFF2"/>
		<stop  offset="0.74" style="stop-color:#D3DFF2"/>
		<stop  offset="0.741" style="stop-color:#FFF3F2"/>
		<stop  offset="0.8346" style="stop-color:#FFF3F2"/>
		<stop  offset="0.85" style="stop-color:#FFF3F2"/>
		<stop  offset="0.851" style="stop-color:#D3DFF2"/>
	</linearGradient>
	<path style="fill:url(#SVGID_1_);" d="M204.16,185.274c32.007-24.411,75.732-26.621,110.038-5.563
		c17.949-19.642,27.767-45.369,27.466-71.975c0-54.198-38.205-98.133-85.333-98.133s-85.333,43.935-85.333,98.133
		C170.557,137.115,182.611,165.3,204.16,185.274L204.16,185.274z"/>
	<path style="fill:#7FACFA;" d="M358.73,479.561c62.003-26.105,101.808-78.487,101.808-146.513
		c0.006-11.483-0.643-22.957-1.944-34.367c-0.78,0.06-1.527,0.233-2.322,0.233c-14.314,0.013-26.621-10.14-29.328-24.196
		c-2.707-14.056,4.949-28.054,18.245-33.358c-15.656-41.7-46.308-76.057-85.959-96.351l-0.106-0.026L358.73,479.561z"/>
	<path style="fill:#FFFFFF;" d="M144.735,147.454c-35.781-14.533-60.758-20.811-82.633-18.384c-1.373,0.164-2.468,1.225-2.673,2.593
		c-0.205,1.368,0.529,2.704,1.793,3.264c19.893,9.575,23.374,34.92,32.313,53.877c-25.969,25.025-28.518,43.202-33.095,75.978
		H42.265c-24.491,0-33.401,18.999-33.401,43.489v30.778c0,24.491,8.91,45.2,33.401,45.2h11.207
		c13.569,36.03,40.334,65.55,74.867,82.571L144.735,147.454z"/>
	<path style="fill:#D4E1F4;" d="M433.214,298.681c-0.691,0.06-1.354,0.233-2.059,0.233c-15.533-0.99-27.358-14.327-26.481-29.867
		c-0.121-8.91,3.572-17.446,10.149-23.458c3.729-3.244,5.057-8.46,3.332-13.092c-11.982-31.861-33.091-59.483-60.688-79.41
		c-7.714,1.98-5.847,5.848-15.803,10.114c-2.426,5.888-5.278,11.592-8.533,17.067c-3.431,4.485-12.373-2.384-17.459-4.84
		c-30.909-15.026-67.353-13.217-96.622,4.796c-4.927,2.921-11.229,1.965-15.068-2.284c-7.856-8.727-14.104-18.777-18.454-29.684
		l-15.846-6.974c-3.703,1.425-7.087,2.794-10.032,4.058c-3.115,1.308-6.635,1.256-9.71-0.142
		c-11.575-5.342-23.557-9.751-35.834-13.186c-5.745-1.518-11.847,0.469-15.598,5.078c-3.751,4.609-4.455,10.988-1.801,16.304
		c4.275,9.049,7.05,19.616,10.47,29.246c1.324,3.941,0.462,8.288-2.264,11.426c-16.448,19.695-20.164,35.856-23.377,60.107
		c-0.792,6.051-5.938,10.583-12.041,10.605h-5.416c-21.714,0-29.615,18.999-29.615,43.489v30.778c0,24.491,7.9,45.2,29.615,45.2
		h9.937c22.561,74.015,101.779,113.625,184.888,113.625c101.331,0,176.034-65.856,176.034-164.825
		C434.944,321.571,434.369,310.101,433.214,298.681z"/>
	<circle style="fill:#FFFFFF;" cx="123.399" cy="251.984" r="21.333"/>
	<g>
		<path style="fill:#428DFF;" d="M123.402,281.849c-16.495,0-29.867-13.372-29.867-29.867s13.372-29.867,29.867-29.867
			s29.867,13.372,29.867,29.867C153.248,268.469,139.888,281.829,123.402,281.849z M123.402,239.182c-7.069,0-12.8,5.731-12.8,12.8
			s5.731,12.8,12.8,12.8s12.8-5.731,12.8-12.8C136.194,244.916,130.468,239.19,123.402,239.182z"/>
		<path style="fill:#428DFF;" d="M460.539,333.049c-4.713,0-8.533-3.82-8.533-8.533s3.821-8.533,8.533-8.533
			c18.842-0.022,34.112-15.291,34.133-34.133c0-4.713,3.82-8.533,8.533-8.533s8.533,3.821,8.533,8.533
			C511.708,310.113,488.803,333.018,460.539,333.049L460.539,333.049z"/>
		<path style="fill:#428DFF;" d="M503.206,290.382c-4.713,0-8.533-3.821-8.533-8.533c-0.022-18.842-15.291-34.112-34.133-34.133
			c-4.713,0-8.533-3.821-8.533-8.533c0-4.713,3.821-8.533,8.533-8.533c28.264,0.031,51.169,22.936,51.2,51.2
			C511.739,286.562,507.919,290.382,503.206,290.382z"/>
		<path style="fill:#428DFF;" d="M456.273,307.449c-21.208,0-38.4-17.192-38.4-38.4c0-21.208,17.192-38.4,38.4-38.4
			c21.208,0,38.4,17.192,38.4,38.4C494.649,290.247,477.471,307.426,456.273,307.449z M456.273,247.716
			c-11.782,0-21.333,9.551-21.333,21.333c0,11.782,9.551,21.333,21.333,21.333c11.782,0,21.333-9.551,21.333-21.333
			C477.592,257.273,468.049,247.73,456.273,247.716L456.273,247.716z"/>
		<path style="fill:#428DFF;" d="M485.664,272.953c-2.908,0-5.616-1.481-7.185-3.93c-1.569-2.449-1.782-5.528-0.565-8.17
			c5.145-11.18,5.213-24.037,0.188-35.271c-1.924-4.301,0.003-9.347,4.304-11.271c4.301-1.924,9.347,0.003,11.271,4.304
			c7.036,15.724,6.943,33.72-0.254,49.371C492.029,271.015,488.999,272.955,485.664,272.953L485.664,272.953z"/>
		<path style="fill:#428DFF;" d="M365.493,210.728c-2.264,0.003-4.435-0.897-6.033-2.5c-45.88-45.767-120.145-45.767-166.025,0
			c-2.156,2.156-5.297,2.997-8.242,2.208c-2.944-0.789-5.244-3.089-6.033-6.033s0.053-6.086,2.208-8.242
			c52.546-52.425,137.612-52.425,190.158,0c2.44,2.44,3.169,6.11,1.849,9.298C372.056,208.648,368.945,210.727,365.493,210.728
			L365.493,210.728z"/>
		<path style="fill:#428DFF;" d="M208.014,195.716l-4.767-3.695c-45.062-34.777-54.826-98.835-22.171-145.458
			c2.706-3.859,8.028-4.794,11.888-2.088c3.859,2.706,4.794,8.028,2.087,11.888c-26.145,37.33-20.045,88.348,14.163,118.463
			c38.01-21.981,84.359-24.017,124.15-5.454c15.926-16.557,24.785-38.661,24.704-61.634c-0.019-29.951-14.993-57.915-39.911-74.533
			c-24.918-16.618-56.489-19.697-84.147-8.204c-2.815,1.18-6.046,0.767-8.473-1.084s-3.68-4.857-3.287-7.884
			c0.393-3.027,2.374-5.613,5.193-6.782c47.731-19.938,102.887-2.733,130.817,40.807c27.93,43.54,20.572,100.847-17.451,135.919
			l-4.429,4.1l-5.342-2.813c-37.391-19.599-82.424-17.619-117.95,5.188L208.014,195.716z"/>
		<circle style="fill:#428DFF;" cx="205.131" cy="30.954" r="8.533"/>
		<path style="fill:#428DFF;" d="M261.998,506.407c-103.792,0-187.1-44.392-214.467-113.625h-5.267
			c-26.258,0-41.933-20.088-41.933-53.733V308.27c0-33.058,15.283-52.021,41.933-52.021h10.762
			c3.983-27.654,8.1-46.325,30.354-69.367c-1.467-3.592-2.808-7.262-4.117-10.854c-5.221-14.313-10.15-27.833-21.742-33.413
			c-4.732-2.229-7.389-7.347-6.488-12.5c0.841-5.095,4.988-8.996,10.125-9.525c21.787-2.421,46.146,2.717,83.567,17.662
			c7.104-2.796,16.687-6.104,27.471-9.479l8.187-2.558l3.1,9.508c4.961,15.084,13.843,28.577,25.737,39.096
			c38.008-21.962,84.34-23.999,124.129-5.458c7.59-8.053,13.651-17.419,17.887-27.642l3.154-7.625l8.812,3.367
			c41.522,21.247,73.612,57.236,89.979,100.913l2.917,7.808l-7.742,3.1c-9.498,3.784-14.969,13.782-13.037,23.821
			c1.933,10.04,10.725,17.291,20.949,17.279c0.717-0.112,1.196-0.175,1.683-0.208l8.183-0.612l0.933,8.15
			c1.333,11.732,2.001,23.53,2,35.337C469.073,435.12,383.918,506.407,261.998,506.407z M42.264,273.316
			c-6.15,0-24.867,0-24.867,34.954v30.779c0,16.729,4.312,36.667,24.867,36.667h17.3l1.979,5.758
			c22.179,64.517,102.738,107.867,200.454,107.867c111.875,0,190.008-64.271,190.008-156.292c0-8.683-0.383-17.392-1.142-25.979
			c-15.651-2.219-28.341-13.808-31.968-29.194c-3.627-15.386,2.551-31.422,15.564-40.398
			c-14.428-33.928-39.522-62.228-71.479-80.613c-5.672,10.899-13.171,20.745-22.171,29.108l-4.429,4.1l-5.342-2.813
			c-37.391-19.599-82.424-17.619-117.95,5.188l-5.075,3.267l-4.767-3.695c-14.961-11.582-26.562-26.945-33.608-44.504
			c-8.746,2.871-16.383,5.625-21.617,7.813l-3.242,1.354l-3.258-1.325c-20.043-9.143-41.348-15.214-63.2-18.008
			c7.697,9.764,13.458,20.908,16.975,32.833c1.954,5.35,3.796,10.4,5.954,14.979l2.612,5.538l-4.408,4.25
			c-23.854,22.988-26.096,39.038-30.566,71.013l-1.025,7.354L42.264,273.316z"/>
		<path style="fill:#428DFF;" d="M229.948,162.362c-1.892,0.001-3.73-0.628-5.225-1.788c-23.77-18.358-33.545-49.607-24.473-78.238
			s35.059-48.548,65.064-49.867c30.005-1.318,57.639,16.243,69.187,43.967c11.548,27.725,4.552,59.711-17.516,80.083
			c-3.466,3.146-8.819,2.913-11.998-0.522c-3.179-3.435-2.998-8.791,0.407-12.003c11.217-10.247,17.588-24.753,17.542-39.946
			c0.036-25.528-17.662-47.656-42.574-53.23s-50.353,6.902-61.199,30.011c-10.846,23.109-4.187,50.651,16.019,66.252
			c2.885,2.235,4.03,6.058,2.847,9.511C236.845,160.047,233.597,162.365,229.948,162.362L229.948,162.362z"/>
		<path style="fill:#428DFF;" d="M408.631,513.07h-51.342c-10.032,0.046-18.888-6.541-21.729-16.162l-4.921-16.421l7.958-2.562
			c30.411-9.231,57.714-26.61,78.95-50.254l9.612-11.108l16.558,46.916c4.02,11.387,2.263,24.017-4.712,33.875
			C432.032,507.21,420.707,513.07,408.631,513.07L408.631,513.07z M351.743,491.453l0.167,0.55c0.703,2.382,2.896,4.012,5.379,4
			h51.342c6.536-0.001,12.665-3.172,16.441-8.507c3.776-5.335,4.728-12.17,2.555-18.334l-7.025-19.904
			C400.873,468.01,377.409,482.389,351.743,491.453L351.743,491.453z"/>
		<path style="fill:#428DFF;" d="M152.689,513.07H95.173c-11.522,0-22.294-5.716-28.753-15.257
			c-6.459-9.542-7.765-21.666-3.484-32.364l18.659-46.65l9.162,9.467c22.266,21.79,49.46,37.886,79.275,46.921l8.654,2.829
			l-9.57,23.933C166.446,508.68,159.93,513.091,152.689,513.07z M87.864,449.07l-9.083,22.721
			c-2.176,5.439-1.513,11.604,1.772,16.455c3.284,4.851,8.761,7.757,14.62,7.757h57.517l3.254-7.637
			C131.023,479.575,107.942,466.252,87.864,449.07L87.864,449.07z"/>
		<path style="fill:#428DFF;" d="M250.464,471.391c-30.915,0.172-61.507-6.293-89.708-18.959c-4.301-1.913-6.241-6.948-4.336-11.252
			s6.936-6.254,11.244-4.356c32.693,14.682,68.706,20.393,104.337,16.546c3.037-0.262,5.983,1.116,7.728,3.615
			c1.745,2.499,2.025,5.739,0.733,8.5c-1.292,2.761-3.958,4.623-6.995,4.885C265.618,471.049,257.95,471.389,250.464,471.391z"/>
	</g>
</g>
<g>
</g>
<g>
</g>
<g>
</g>
<g>
</g>
<g>
</g>
<g>
</g>
<g>
</g>
<g>
</g>
<g>
</g>
<g>
</g>
<g>
</g>
<g>
</g>
<g>
</g>
<g>
</g>
<g>
</g>
</svg>
